<svg id="BLACK" xmlns="http://www.w3.org/2000/svg" width="768" height="768" viewBox="0 0 768 768">
  <defs>
    <style>
      .cls-1, .cls-2 {
        fill: #0d180f;
      }

      .cls-1 {
        fill-rule: evenodd;
      }
    </style>
  </defs>
  <path id="FEVER" class="cls-1" d="M130.806,603.442h7.78v-71.47h45.971v-7.247H138.586V423.268h55.165v-7.247H130.806V603.442Zm90.054,0h63.417V596.2H228.64V532.472h46.442v-7.247H228.64V423.268h55.637v-7.247H220.86V603.442ZM477.824,416.021H470.28L390.6,589.7,310.442,416.021h-8.487L389.89,607.69Zm18.388,187.421h63.417V596.2H503.992V532.472h46.442v-7.247H503.992V423.268h55.637v-7.247H496.212V603.442Zm90.525,0h7.544V543.967L647.8,603.442h10.138L597.11,535.471h1.65q20.273,0,37.956-17.743T654.4,475.871q0-24.114-17.327-41.983t-40.2-17.867H586.737V603.442Zm7.544-180.174h3.065q19.327,0,34.419,15.743T646.853,476a51.724,51.724,0,0,1-14.616,36.734q-14.62,15.5-33.712,15.494h-4.244V423.268Z"/>
  <path id="GREEN" class="cls-1" d="M214.753,281.972v56.476q-20.748,10.5-40.077,10.5-34.656,0-59.409-26.489T90.513,259.107q0-36.858,24.754-63.224t59.409-26.364q25.694,0,47.857,15.994v-9.247q-22.632-13.992-47.857-13.994-37.722,0-64.831,28.613T82.733,259.232a98.262,98.262,0,0,0,12.141,47.6A96.74,96.74,0,0,0,128,342.7a82.115,82.115,0,0,0,45.264,13.495h2.594a82.631,82.631,0,0,0,46.678-13.744V274.725H156.287v7.247h58.466Zm41.962,71.47h7.544V293.967l53.516,59.475h10.137l-60.824-67.971h1.651q20.273,0,37.955-17.743t17.682-41.857q0-24.114-17.328-41.983t-40.195-17.867H256.715V353.442Zm7.544-180.174h3.065q19.327,0,34.42,15.743T316.832,226a51.725,51.725,0,0,1-14.617,36.734q-14.62,15.5-33.712,15.494h-4.244V173.268ZM356.2,353.442h63.417V346.2H363.981V282.472h46.443v-7.247H363.981V173.268h55.637v-7.247H356.2V353.442Zm90.525,0h63.417V346.2H454.506V282.472h46.443v-7.247H454.506V173.268h55.637v-7.247H446.726V353.442ZM667.386,332.7L537.252,163.272v190.17h6.836V186.512L674.222,356.191V166.021h-6.836V332.7Z"/>
  <rect id="Prostokąt_1" data-name="Prostokąt 1" class="cls-2" x="750" width="18" height="768"/>
  <rect id="Prostokąt_1_kopia" data-name="Prostokąt 1 kopia" class="cls-2" width="18" height="768"/>
  <rect id="Prostokąt_1_kopia_2" data-name="Prostokąt 1 kopia 2" class="cls-2" y="750" width="768" height="18"/>
  <rect id="Prostokąt_1_kopia_3" data-name="Prostokąt 1 kopia 3" class="cls-2" width="768" height="18"/>
</svg>
